HIERARCHY
ROOT Hips
{
	OFFSET 0.000000 0.000000 0.000000
	CHANNELS 6 Xposition Yposition Zposition Xrotation Yrotation Zrotation
	JOINT LeftUpLeg_virtual
	{
		OFFSET 0.000000 0.000000 0.000000
		CHANNELS 3 Xrotation Yrotation Zrotation
		JOINT LeftUpLeg
		{
			OFFSET 15.427100 -6.655098 0.678600
			CHANNELS 3 Xrotation Yrotation Zrotation
			JOINT LeftLeg
			{
				OFFSET 4.081073 -39.591068 13.024000
				CHANNELS 3 Xrotation Yrotation Zrotation
				JOINT LeftFoot
				{
					OFFSET -4.081074 -37.707932 -15.979700
					CHANNELS 3 Xrotation Yrotation Zrotation
					JOINT LeftToeBase
					{
						OFFSET 5.346399 -15.068900 20.645000
						CHANNELS 3 Xrotation Yrotation Zrotation
						JOINT LeftToe_End
						{
							OFFSET 2.754700 0.931300 11.300900
							CHANNELS 3 Xrotation Yrotation Zrotation
							End Site
							{
								OFFSET 0 0 0
							}
						}
					}
				}
			}
		}
	}
	JOINT RightUpLeg_virtual
	{
		OFFSET 0.000000 0.000000 0.000000
		CHANNELS 3 Xrotation Yrotation Zrotation
		JOINT RightUpLeg
		{
			OFFSET -15.569500 -6.655098 0.678600
			CHANNELS 3 Xrotation Yrotation Zrotation
			JOINT RightLeg
			{
				OFFSET -4.081825 -39.591045 13.023800
				CHANNELS 3 Xrotation Yrotation Zrotation
				JOINT RightFoot
				{
					OFFSET 4.081824 -37.707954 -15.979600
					CHANNELS 3 Xrotation Yrotation Zrotation
					JOINT RightToeBase
					{
						OFFSET -5.346400 -15.068900 20.645000
						CHANNELS 3 Xrotation Yrotation Zrotation
						JOINT RightToe_End
						{
							OFFSET -2.754700 0.931300 11.300900
							CHANNELS 3 Xrotation Yrotation Zrotation
							End Site
							{
								OFFSET 0 0 0
							}
						}
					}
				}
			}
		}
	}
	JOINT Spine_virtual
	{
		OFFSET 0.000000 0.000000 0.000000
		CHANNELS 3 Xrotation Yrotation Zrotation
		JOINT Spine
		{
			OFFSET -0.279200 12.230698 -2.892100
			CHANNELS 3 Xrotation Yrotation Zrotation
			JOINT Spine1
			{
				OFFSET -0.232667 10.192268 -1.242267
				CHANNELS 3 Xrotation Yrotation Zrotation
				JOINT Spine1_split
				{
					OFFSET -0.232667 10.192268 -1.242267
					CHANNELS 3 Xrotation Yrotation Zrotation
					JOINT Spine2
					{
						OFFSET -0.232667 10.192268 -1.242267
						CHANNELS 3 Xrotation Yrotation Zrotation
						JOINT Neck_virtual
						{
							OFFSET 0.000000 0.000000 0.000000
							CHANNELS 3 Xrotation Yrotation Zrotation
							JOINT Neck
							{
								OFFSET -0.418800 17.814194 8.416900
								CHANNELS 3 Xrotation Yrotation Zrotation
								JOINT Head
								{
									OFFSET 0.000000 7.031097 3.806800
									CHANNELS 3 Xrotation Yrotation Zrotation
									JOINT HeadTop_End
									{
										OFFSET 0.000000 24.646606 12.978600
										CHANNELS 3 Xrotation Yrotation Zrotation
										End Site
										{
											OFFSET 0 0 0
										}
									}
								}
							}
						}
						JOINT LeftShoulder_virtual
						{
							OFFSET 0.000000 0.000000 0.000000
							CHANNELS 3 Xrotation Yrotation Zrotation
							JOINT LeftShoulder
							{
								OFFSET 8.476499 7.247704 -3.868750
								CHANNELS 3 Xrotation Yrotation Zrotation
								JOINT LeftShoulder_split
								{
									OFFSET 8.476499 7.247704 -3.868750
									CHANNELS 3 Xrotation Yrotation Zrotation
									JOINT LeftArm
									{
										OFFSET 9.308998 -2.777710 0.208600
										CHANNELS 3 Xrotation Yrotation Zrotation
										JOINT LeftForeArm
										{
											OFFSET 29.972298 0.000000 0.000000
											CHANNELS 3 Xrotation Yrotation Zrotation
											JOINT LeftHand
											{
												OFFSET 26.026505 0.000000 0.000000
												CHANNELS 3 Xrotation Yrotation Zrotation
												End Site
												{
													OFFSET 0 0 0
												}
											}
										}
									}
								}
							}
						}
						JOINT RightShoulder_virtual
						{
							OFFSET 0.000000 0.000000 0.000000
							CHANNELS 3 Xrotation Yrotation Zrotation
							JOINT RightShoulder
							{
								OFFSET -7.570500 7.247704 -3.868750
								CHANNELS 3 Xrotation Yrotation Zrotation
								JOINT RightShoulder_split
								{
									OFFSET -7.570500 7.247704 -3.868750
									CHANNELS 3 Xrotation Yrotation Zrotation
									JOINT RightArm
									{
										OFFSET -9.308998 -2.777710 0.208500
										CHANNELS 3 Xrotation Yrotation Zrotation
										JOINT RightForeArm
										{
											OFFSET -29.972300 0.000000 0.000000
											CHANNELS 3 Xrotation Yrotation Zrotation
											JOINT RightHand
											{
												OFFSET -26.026505 0.000000 0.000000
												CHANNELS 3 Xrotation Yrotation Zrotation
												End Site
												{
													OFFSET 0 0 0
												}
											}
										}
									}
								}
							}
						}
					}
				}
			}
		}
	}
}
MOTION
Frames: 11
Frame Time: 0.03333333
11.166193 83.837395 -20.070847 0.000000 0.000000 0.000000 8.777594 14.292529 -0.844710 0.448576 10.027205 11.108937 39.238354 -3.224001 4.407396 -7.461110 -8.887580 -19.994324 -17.271417 -0.084547 -2.414900 0.000000 0.000000 0.000000 8.246259 11.967168 -0.600428 -39.790210 -8.986475 -7.223283 43.747577 -0.033374 1.908376 -8.568851 2.714009 -1.482971 -1.776666 1.219813 0.178401 0.000000 0.000000 0.000000 8.924318 11.412833 -0.307006 0.963698 -2.777419 -1.049766 2.619259 -1.623831 1.883569 -1.121563 1.175311 0.103710 0.000000 0.000000 0.000000 2.758916 -2.612002 2.210912 -4.106292 3.018776 0.856490 -12.017616 4.723608 8.189911 0.000000 0.000000 0.000000 1.132122 -1.794023 2.402148 0.939465 1.764445 -0.942004 4.247475 -5.990930 7.131749 -43.771585 -7.503794 -37.398308 173.599790 -63.422650 173.855184 0.000000 0.000000 0.000000 1.473333 -2.870979 1.749216 -0.763484 -18.967271 6.919908 -0.077669 8.915604 -4.320870 -35.530453 9.277610 55.650660 -173.000495 62.622029 174.568297 0.000000 0.000000 0.000000 
11.675829 86.134117 -21.187279 0.000000 0.000000 0.000000 11.337676 15.871572 -2.202648 -11.698746 8.144028 15.545750 51.843861 -3.496522 3.103006 1.415673 -9.944837 -17.433303 -8.109058 0.066261 -4.866062 0.000000 0.000000 0.000000 9.422919 12.132152 -1.340292 -37.565685 -10.378945 -6.282279 41.281038 0.836992 2.245251 -8.918902 2.712292 -0.751376 -5.466959 0.936780 -0.287535 0.000000 0.000000 0.000000 10.370549 11.011172 -0.974223 5.108143 -2.167628 -0.685419 2.702088 -1.171145 0.886127 0.300149 1.375513 0.011623 0.000000 0.000000 0.000000 2.733592 -2.188139 1.554320 -5.208407 2.657203 -1.091727 -15.851223 2.040020 9.709594 0.000000 0.000000 0.000000 1.322230 -1.380833 1.606019 1.095321 0.717494 10.491928 4.340861 -3.253277 2.840714 -59.857736 -6.389038 -35.898945 173.262023 -67.886507 172.853510 0.000000 0.000000 0.000000 1.666796 -2.182785 0.925546 -2.572531 -18.034626 -0.903201 0.729582 6.503822 -4.550106 -53.639255 3.682889 58.603399 -173.087007 66.121081 173.842385 0.000000 0.000000 0.000000 
11.929289 87.758125 -21.504242 0.000000 0.000000 0.000000 13.336399 15.417477 -2.667794 -23.475703 7.506912 19.009491 62.840780 -1.914645 0.685225 8.146638 -7.611600 -10.180697 0.647559 -0.189663 -6.954972 0.000000 0.000000 0.000000 10.761276 11.535099 -1.697354 -35.853422 -11.235248 -6.299736 39.906593 0.077591 2.971188 -9.761154 2.137630 -1.942786 -9.263866 0.426634 -0.266971 0.000000 0.000000 0.000000 11.917253 9.727088 -1.091875 8.441267 -1.523438 -1.082372 3.145009 -0.754411 0.088732 1.584450 1.452013 -0.071854 0.000000 0.000000 0.000000 3.249817 -1.716235 1.066857 -6.368022 2.359960 -2.712275 -19.891744 -0.188860 10.894988 0.000000 0.000000 0.000000 1.981884 -1.032846 0.948390 1.276697 0.219010 20.908881 4.257653 -0.074113 -0.263616 -72.430789 -5.939460 -31.913711 169.603542 -75.797744 168.943431 0.000000 0.000000 0.000000 2.446273 -1.524094 0.215539 -4.127354 -16.379502 -8.993954 1.504512 3.267980 -4.318036 -66.748577 -3.118358 57.783674 -174.188661 70.084646 173.439677 0.000000 0.000000 0.000000 
11.982844 88.937309 -21.498222 0.000000 0.000000 0.000000 14.557095 13.030443 -2.016346 -33.799102 8.439792 20.766674 70.232042 0.252349 -2.018429 11.755157 -3.687490 -1.352787 3.733103 -0.515134 -6.995589 0.000000 0.000000 0.000000 12.189142 9.612259 -1.439147 -35.128797 -11.467772 -7.537335 38.793258 -1.676518 4.060467 -9.577141 1.333648 -3.813338 -12.443599 -0.181914 0.152975 0.000000 0.000000 0.000000 13.343860 7.800843 -0.654497 10.274166 -1.006946 -2.055745 3.775567 -0.445720 -0.282507 1.620418 0.929563 0.336871 0.000000 0.000000 0.000000 4.085267 -1.259412 0.928581 -7.431902 2.158129 -3.464082 -23.140795 -1.627597 11.740122 0.000000 0.000000 0.000000 2.853024 -0.764653 0.714138 1.201714 0.511130 28.132197 3.849344 2.483226 -3.107852 -79.833129 -6.400774 -27.416212 157.128638 -83.341272 156.916424 0.000000 0.000000 0.000000 3.518946 -1.075276 -0.181025 -4.946134 -14.348363 -15.309232 1.946944 0.513730 -3.094361 -72.451109 -8.152300 55.002229 -176.560882 73.518674 173.995818 0.000000 0.000000 0.000000 
11.750689 89.932877 -21.289108 0.000000 0.000000 0.000000 15.193425 9.845439 -0.892196 -42.392665 10.446302 20.796514 73.307321 1.850517 -3.959094 13.588344 -0.804273 5.299392 2.050651 -0.713975 -5.363905 0.000000 0.000000 0.000000 13.595746 6.628251 -0.576353 -35.001055 -10.777359 -9.360109 36.563597 -2.950670 4.981161 -8.083122 1.318231 -4.334218 -14.043361 -0.635844 0.607113 0.000000 0.000000 0.000000 15.092473 5.599651 -0.116851 10.316833 -0.579491 -3.262358 4.458053 -0.269043 -0.146836 1.004648 0.096282 0.504696 0.000000 0.000000 0.000000 4.861153 -0.920230 1.174217 -8.430824 2.015292 -3.208108 -25.017069 -2.136544 12.334612 0.000000 0.000000 0.000000 3.549906 -0.480418 0.946853 0.805200 1.641622 30.055421 2.883924 2.780584 -4.718404 -80.383608 -6.559046 -24.024975 143.217811 -85.882676 143.845000 0.000000 0.000000 0.000000 4.562747 -0.809066 -0.128678 -4.888433 -12.368872 -18.014839 1.942132 -0.312216 -1.779047 -70.392585 -10.561066 52.767914 179.860560 75.391239 176.118409 0.000000 0.000000 0.000000 
11.204873 90.828766 -20.593636 0.000000 0.000000 0.000000 15.750435 6.532375 0.025439 -49.674255 12.652975 19.764112 71.646267 2.453830 -4.717374 15.198194 -0.120384 8.204071 -1.165601 -0.905588 -2.737759 0.000000 0.000000 0.000000 15.031356 3.440853 0.247063 -33.903877 -9.114123 -10.433347 32.779010 -3.285894 5.507598 -6.552294 2.249694 -2.915895 -14.283090 -0.802862 0.946541 0.000000 0.000000 0.000000 17.010173 3.464744 0.009095 8.846995 -0.100742 -4.243659 5.042184 -0.123021 0.377567 0.376406 -0.135054 0.829339 0.000000 0.000000 0.000000 5.230859 -0.644831 1.685487 -9.379615 1.909098 -2.074956 -25.239912 -1.947132 12.688039 0.000000 0.000000 0.000000 4.068151 -0.132070 1.465451 0.385439 3.393361 26.208428 1.841041 0.309583 -5.203931 -73.325277 -5.550304 -22.764705 163.851184 -82.535446 165.407798 0.000000 0.000000 0.000000 5.418182 -0.549978 0.340229 -4.143136 -10.772787 -16.671057 1.764511 0.254900 0.131417 -61.444054 -10.156764 52.301822 176.515461 75.808065 178.706613 0.000000 0.000000 0.000000 
10.494244 90.923767 -19.716415 0.000000 0.000000 0.000000 16.624607 3.431037 0.183726 -55.953531 14.733188 18.475199 66.286767 2.463114 -4.190496 15.770405 -0.935678 8.294008 -2.763626 -1.165577 -0.235014 0.000000 0.000000 0.000000 16.819962 0.676579 0.396695 -29.945124 -7.717520 -9.557771 27.891619 -3.329674 5.348740 -7.316121 3.120410 -0.914455 -13.662986 -0.703848 1.100884 0.000000 0.000000 0.000000 18.426448 1.516006 -0.406814 6.511652 0.613466 -4.644654 5.525961 0.078819 1.051960 0.430694 0.120154 0.967308 0.000000 0.000000 0.000000 4.946228 -0.386803 2.259113 -10.189418 1.789725 -0.413989 -23.772263 -1.167233 12.850780 0.000000 0.000000 0.000000 4.405504 0.259475 1.950397 0.436327 5.090150 17.407140 0.015342 -3.096386 -5.419868 -59.553731 -3.211189 -23.933080 174.668223 -75.328217 176.917609 0.000000 0.000000 0.000000 5.940218 -0.133516 0.988765 -3.051694 -9.788497 -11.830436 0.972985 2.190569 2.470018 -48.187179 -7.822523 52.713631 175.634968 76.077215 179.373636 0.000000 0.000000 0.000000 
9.899271 89.693024 -19.080658 0.000000 0.000000 0.000000 17.758647 0.821017 -0.484804 -60.547872 16.353406 17.355420 59.458764 2.085523 -2.692732 13.211360 -2.166801 6.709080 -1.083689 -1.202543 1.136654 0.000000 0.000000 0.000000 18.376918 -0.944888 -0.255918 -22.653178 -7.202453 -6.802201 23.934496 -3.740816 4.552012 -12.128456 3.264450 0.304891 -12.408135 -0.453360 1.141680 0.000000 0.000000 0.000000 19.110912 0.043627 -1.349007 4.141594 1.537861 -4.486873 5.914142 0.423747 1.576476 1.016459 0.635807 1.029508 0.000000 0.000000 0.000000 4.210371 -0.085817 2.621667 -10.663798 1.580209 1.300128 -21.062236 0.040556 12.871649 0.000000 0.000000 0.000000 4.570068 0.668002 2.110523 1.052084 6.158556 5.291175 -2.110498 -5.836086 -4.227223 -40.740897 -0.213687 -26.755946 179.327436 -68.556364 -177.953257 0.000000 0.000000 0.000000 6.179368 0.473673 1.569854 -1.820539 -9.529625 -4.779278 -0.077438 3.411352 4.424836 -34.524171 -5.253282 52.775250 178.374570 77.302367 176.744751 0.000000 0.000000 0.000000 
9.414212 87.222031 -18.771637 0.000000 0.000000 0.000000 18.581600 -1.913072 -1.403163 -63.079358 17.407447 16.769528 53.410956 1.048079 -0.685163 7.487340 -3.458808 3.847425 1.029523 -0.931182 1.662583 0.000000 0.000000 0.000000 19.443148 -1.873911 -1.526432 -13.739515 -7.488245 -3.151339 22.669150 -4.851822 3.739822 -19.791455 2.518189 0.002696 -11.927447 -0.225964 1.389975 0.000000 0.000000 0.000000 18.531929 -1.045740 -2.442389 2.204736 2.546690 -4.012761 6.104108 0.876066 1.775305 1.768938 0.928487 0.839919 0.000000 0.000000 0.000000 3.418653 0.317684 2.615174 -10.375942 1.365884 2.822321 -17.618441 1.510717 12.667746 0.000000 0.000000 0.000000 4.773866 1.071955 1.925214 1.809835 6.515898 -6.797904 -3.908243 -6.383751 -2.630016 -21.930411 2.363403 -30.342275 -177.531124 -64.886667 -174.316113 0.000000 0.000000 0.000000 6.046019 1.088924 1.819455 -0.587314 -10.081027 2.579152 -0.732662 3.612063 5.581171 -23.121198 -4.225616 53.195675 -174.164360 79.464586 169.424536 0.000000 0.000000 0.000000 
9.147469 84.025742 -19.084953 0.000000 0.000000 0.000000 18.644543 -4.779013 -2.189487 -63.040003 18.064001 16.227672 50.118484 -0.639858 1.458163 0.498128 -3.884112 0.403684 0.519036 -0.623205 1.762302 0.000000 0.000000 0.000000 19.771309 -2.610964 -2.751126 -5.947587 -8.553736 0.037292 24.332551 -6.331199 3.092483 -27.375048 1.532472 -1.017617 -12.936214 -0.137719 1.848048 0.000000 0.000000 0.000000 17.232849 -1.960627 -3.118433 0.897320 3.550977 -3.527459 5.998512 1.343130 1.627816 1.902801 0.753741 -0.009473 0.000000 0.000000 0.000000 3.060005 0.811873 2.201986 -9.110160 1.196682 3.911680 -14.096341 3.237117 12.184480 0.000000 0.000000 0.000000 4.904355 1.451937 1.546814 2.218264 6.639263 -15.927270 -4.843354 -5.594403 0.148668 -9.143660 4.032110 -33.558854 -175.203286 -63.020585 -171.394800 0.000000 0.000000 0.000000 5.604102 1.542304 1.703809 0.631423 -11.073361 8.714425 -1.254131 3.308130 5.114864 -15.834199 -5.319472 54.752743 -162.508287 80.346199 158.011468 0.000000 0.000000 0.000000 
9.291087 81.382843 -19.594261 0.000000 0.000000 0.000000 17.819897 -8.099580 -2.710066 -60.009974 18.129086 15.020158 49.749722 -2.537932 3.344927 -5.247650 -2.870722 -1.916790 -1.850738 -0.382633 1.457545 0.000000 0.000000 0.000000 19.377983 -3.620349 -3.388213 -1.709646 -9.577206 1.769047 28.262956 -7.375572 2.957128 -31.396983 1.152707 -1.472638 -15.459886 -0.151004 2.435442 0.000000 0.000000 0.000000 15.674144 -2.599526 -3.272104 0.267378 4.298192 -3.224620 5.482318 1.756704 1.205465 1.801137 0.004566 -0.450605 0.000000 0.000000 0.000000 3.428360 1.271995 1.520281 -6.926935 1.055754 4.466989 -11.231821 5.030722 11.370309 0.000000 0.000000 0.000000 4.832163 1.779504 1.152016 2.213190 7.204087 -20.611254 -4.906498 -4.481308 3.334727 -5.350553 4.543328 -36.420092 -174.623745 -61.018533 -170.096927 0.000000 0.000000 0.000000 4.973423 1.702591 1.362780 1.635455 -11.877947 12.716383 -1.027547 2.635790 3.397449 -13.182194 -6.971125 57.385187 -156.174120 79.312806 152.123913 0.000000 0.000000 0.000000 
